HIERARCHY
ROOT SpineBase
{
  OFFSET 0.000000 0.000000 0.000000
  CHANNELS 6 Xposition Yposition Zposition Zrotation Xrotation Yrotation
  JOINT SpineMid
  {
    OFFSET 0.000000 30.398305 0.000000
    CHANNELS 3 Zrotation Xrotation Yrotation
    JOINT SpineShoulder
    {
      OFFSET -0.072102 22.587829 -0.821546
      CHANNELS 3 Zrotation Xrotation Yrotation
      JOINT Neck
      {
        OFFSET -0.074174 7.481770 -0.618349
        CHANNELS 3 Zrotation Xrotation Yrotation
        JOINT Head
        {
          OFFSET 1.423052 13.546982 -2.263071
          CHANNELS 3 Zrotation Xrotation Yrotation
          End Site
          {
            OFFSET 0 0 0
          }
        }
      }
      JOINT ShoulderLeft
      {
        OFFSET -17.377758 -0.942405 -0.354339
        CHANNELS 3 Zrotation Xrotation Yrotation
        JOINT ElbowLeft
        {
          OFFSET -6.216416 -25.725343 1.457831
          CHANNELS 3 Zrotation Xrotation Yrotation
          JOINT WristLeft
          {
            OFFSET 0.104891 -23.391663 -5.536933
            CHANNELS 3 Zrotation Xrotation Yrotation
            JOINT HandLeft
            {
              OFFSET 0.453026 -6.952290 -1.894256
              CHANNELS 3 Zrotation Xrotation Yrotation
              JOINT HandTipLeft
              {
                OFFSET -0.766946 -6.906667 -2.563631
                CHANNELS 3 Zrotation Xrotation Yrotation
                End Site
                {
                  OFFSET 0 0 0
                }
              }
              JOINT ThumbLeft
              {
                OFFSET -4.013638 1.297604 -1.460837
                CHANNELS 3 Zrotation Xrotation Yrotation
                End Site
                {
                  OFFSET 0 0 0
                }
              }
            }
          }
        }
      }
      JOINT ShoulderRight
      {
        OFFSET 17.243446 -3.837597 -0.594193
        CHANNELS 3 Zrotation Xrotation Yrotation
        JOINT ElbowRight
        {
          OFFSET 1.682609 -29.947810 1.188296
          CHANNELS 3 Zrotation Xrotation Yrotation
          JOINT WristRight
          {
            OFFSET -1.265159 -23.516142 -3.908076
            CHANNELS 3 Zrotation Xrotation Yrotation
            JOINT HandRight
            {
              OFFSET -1.143964 -0.203791 -1.407522
              CHANNELS 3 Zrotation Xrotation Yrotation
              JOINT HandTipRight
              {
                OFFSET 0.724902 -6.503972 -1.857566
                CHANNELS 3 Zrotation Xrotation Yrotation
                End Site
                {
                  OFFSET 0 0 0
                }
              }
              JOINT ThumbRight
              {
                OFFSET 2.727726 -4.072179 -2.815296
                CHANNELS 3 Zrotation Xrotation Yrotation
                End Site
                {
                  OFFSET 0 0 0
                }
              }
            }
          }
        }
      }
    }
  }
  JOINT HipLeft
  {
    OFFSET -8.060954 0.838447 -3.285533
    CHANNELS 3 Zrotation Xrotation Yrotation
    JOINT KneeLeft
    {
      OFFSET -1.578580 -30.813724 3.115940
      CHANNELS 3 Zrotation Xrotation Yrotation
      JOINT AnkleLeft
      {
        OFFSET -0.283710 -31.037767 12.155950
        CHANNELS 3 Zrotation Xrotation Yrotation
        JOINT FootLeft
        {
          OFFSET 5.050614 -7.998464 0.010239
          CHANNELS 3 Zrotation Xrotation Yrotation
          End Site
          {
            OFFSET 0 0 0
          }
        }
      }
    }
  }
  JOINT HipRight
  {
    OFFSET 7.201636 0.827667 -3.867050
    CHANNELS 3 Zrotation Xrotation Yrotation
    JOINT KneeRight
    {
      OFFSET 0.838214 -26.574415 -3.649404
      CHANNELS 3 Zrotation Xrotation Yrotation
      JOINT AnkleRight
      {
        OFFSET 2.291917 -24.422386 -6.424570
        CHANNELS 3 Zrotation Xrotation Yrotation
        JOINT FootRight
        {
          OFFSET 0.445539 -3.973466 -15.176516
          CHANNELS 3 Zrotation Xrotation Yrotation
          End Site
          {
            OFFSET 0 0 0
          }
        }
      }
    }
  }
}
MOTION
Frames: 7
Frame Time: 0.033333
46.066387 69.121168 376.921497 -1.053996 -6.167773 -16.669876 0.491973 -0.354224 16.544392 -0.166770 -0.138635 -0.082171 -13.332972 5.933389 -0.602118 0.000000 0.000000 0.000000 -12.387364 5.915074 0.989155 4.572558 -4.068986 2.269767 -17.254045 0.444567 5.794173 26.617154 -10.867697 -6.692562 0.000000 0.000000 0.000000 0.000000 0.000000 0.000000 16.415884 -14.067436 0.536229 48.091746 33.057247 -39.241031 10.678141 -75.135405 3.402274 -54.740736 55.449856 51.993375 0.000000 0.000000 0.000000 0.000000 0.000000 0.000000 -1.710497 9.299168 16.615324 -2.786554 -3.454993 -1.091480 -12.835223 47.828297 41.810226 0.000000 0.000000 0.000000 30.479416 2.888436 9.612178 -40.941470 -21.243650 6.732483 12.467674 -1.468293 -8.952521 0.000000 0.000000 0.000000
45.562741 69.397877 376.956270 -1.425646 -6.757818 -17.069900 0.544300 -0.182887 16.897705 -0.128567 -0.125992 -0.096232 -12.508881 6.161545 -0.464251 0.000000 0.000000 0.000000 -13.100944 6.206898 1.163239 2.546559 -3.830661 2.939231 -15.325360 -2.035572 4.502595 24.747012 -9.908165 -6.320930 0.000000 0.000000 0.000000 0.000000 0.000000 0.000000 20.777925 -10.472657 0.453019 51.771792 30.552502 -42.565757 -48.646744 -72.888662 -69.906116 -71.964691 56.572880 82.376336 0.000000 0.000000 0.000000 0.000000 0.000000 0.000000 -2.043147 9.980991 17.014223 -1.343453 -3.618100 -0.575182 -17.960070 50.184702 46.437923 0.000000 0.000000 0.000000 13.203671 0.960044 14.157672 -21.139076 -22.948436 1.492479 9.167574 0.227273 0.563638 0.000000 0.000000 0.000000
45.143903 69.713872 376.958210 -1.676297 -7.284082 -17.080038 0.517026 -0.089748 16.872965 -0.092430 -0.114145 -0.109331 -11.119079 6.138549 -0.313913 0.000000 0.000000 0.000000 -14.089490 6.324189 1.375238 1.429000 -3.561317 3.462657 -14.796838 -6.493805 2.899005 24.521516 -6.482808 -6.603109 0.000000 0.000000 0.000000 0.000000 0.000000 0.000000 25.633134 -5.283597 -0.155828 53.201628 27.091192 -43.099283 -64.625569 -57.140999 -96.649778 -76.925887 52.761907 102.182247 0.000000 0.000000 0.000000 0.000000 0.000000 0.000000 -2.219334 10.528554 17.026022 -0.317399 -3.624312 -0.191834 -17.569028 48.379021 43.692433 0.000000 0.000000 0.000000 1.584932 -0.050971 16.644785 -8.962852 -27.002899 -2.471676 7.668555 10.631857 1.702841 0.000000 0.000000 0.000000
44.827450 69.979875 376.928301 -1.754179 -7.766995 -16.788387 0.501613 -0.065305 16.563129 -0.043830 -0.097125 -0.114804 -9.775096 6.374431 -0.168161 0.000000 0.000000 0.000000 -15.164281 6.112516 1.625068 -0.264090 -3.521916 4.001173 -11.322360 -7.821405 1.442153 21.889347 -1.076271 -5.641019 0.000000 0.000000 0.000000 0.000000 0.000000 0.000000 30.611176 0.618171 -1.388442 54.104568 24.482946 -43.202107 -69.044187 -47.211151 -105.511075 -76.481099 44.135775 109.711983 0.000000 0.000000 0.000000 0.000000 0.000000 0.000000 -2.338902 10.669987 16.745539 0.902263 -3.115325 0.274768 -13.518634 42.682725 35.149822 0.000000 0.000000 0.000000 -4.051918 -0.632363 17.510557 -3.277372 -29.537583 -4.398390 7.087593 17.844748 -0.103747 0.000000 0.000000 0.000000
44.642965 70.196975 376.890188 -1.639582 -8.169842 -15.947996 0.480798 -0.110601 15.726864 -0.012703 -0.086244 -0.112970 -8.304352 6.413085 -0.028307 0.000000 0.000000 0.000000 -16.581516 5.722553 1.898508 -1.241974 -4.274099 4.287676 -7.729310 -7.344906 0.572096 17.702957 0.475039 -3.730640 0.000000 0.000000 0.000000 0.000000 0.000000 0.000000 35.441570 6.037727 -3.066912 56.542428 21.314274 -43.424403 -78.290675 -46.633992 -111.732947 -73.490748 40.716073 109.741778 0.000000 0.000000 0.000000 0.000000 0.000000 0.000000 -2.080217 10.574255 15.907006 0.724543 -2.562739 0.220358 -10.918849 38.341686 30.111497 0.000000 0.000000 0.000000 -4.816435 -1.149566 16.803320 -2.271068 -28.368458 -4.391687 7.406642 24.900345 -1.725834 0.000000 0.000000 0.000000
44.590967 70.348155 376.854138 -1.393822 -8.504702 -14.757996 0.474181 -0.211823 14.557507 -0.011283 -0.077154 -0.105367 -6.704484 6.467761 0.104098 0.000000 0.000000 0.000000 -18.106169 5.092523 2.184778 -2.068848 -4.437062 4.590046 -4.293970 -9.242912 -1.108355 15.367920 3.124150 -2.578878 0.000000 0.000000 0.000000 0.000000 0.000000 0.000000 40.118357 11.173984 -5.192903 50.908067 25.906510 -44.886586 -71.309792 -44.633638 -114.422367 -59.677546 40.942271 109.888181 0.000000 0.000000 0.000000 0.000000 0.000000 0.000000 -2.274753 10.329682 14.754055 0.947111 -2.056829 0.217857 0.297813 15.206250 9.582822 0.000000 0.000000 0.000000 -0.534427 -0.485714 14.695012 -7.146959 -25.883731 -2.695499 9.425926 25.371096 -6.282830 0.000000 0.000000 0.000000
44.515252 70.507229 376.815490 -1.145500 -8.831804 -13.534064 0.507156 -0.252557 13.354770 0.004716 -0.059211 -0.094516 -5.406482 6.614273 0.201742 0.000000 0.000000 0.000000 -19.611964 4.301149 2.443991 -2.892075 -5.596451 4.661354 0.191473 -6.872503 -1.838391 11.948765 -0.076520 -1.058790 0.000000 0.000000 0.000000 0.000000 0.000000 0.000000 44.198841 15.529172 -7.453109 44.519209 27.231011 -43.241494 -66.769328 -41.112671 -107.852853 -45.004720 43.399233 102.989916 0.000000 0.000000 0.000000 0.000000 0.000000 0.000000 -2.445287 10.089437 13.570398 1.486498 -0.556828 0.343913 1.720483 1.975173 1.704764 0.000000 0.000000 0.000000 -0.617674 -0.864207 13.461519 -7.156340 -24.808074 -2.459864 10.968107 29.922786 -10.756129 0.000000 0.000000 0.000000
